<svg width="30.000000" height="12.000000" viewBox="0 0 30 12" fill="none" xmlns="http://www.w3.org/2000/svg" xmlns:xlink="http://www.w3.org/1999/xlink">
	<desc>
			Created with Pixso.
	</desc>
	<defs/>
	<path id="Vector" d="M30 1.13C30 1.41 29.89 1.67 29.72 1.87L21.91 10.79C21.18 11.54 20.16 12 19.04 12L11.15 12C9.97 12 8.91 11.49 8.17 10.68L6.91 9.26C6.88 9.24 6.87 9.2 6.87 9.16C6.87 9.08 6.93 9.02 7.01 9.02C7.01 9.02 15.11 9.02 15.13 9.01C15.83 8.99 16.44 8.63 16.81 8.09L20.79 3.58C20.85 3.51 20.89 3.43 20.89 3.34C20.89 3.15 20.74 3 20.56 3L1.47 3L0.21 1.59C0.08 1.44 0 1.25 0 1.03C0 0.46 0.46 0 1.03 0L28.86 0C29.49 0 30 0.5 30 1.13Z" fill="#FFFFFF" fill-opacity="1.000000" fill-rule="nonzero"/>
</svg>
