<svg width="130.000000" height="29.000000" viewBox="0 0 130 29" fill="none" xmlns="http://www.w3.org/2000/svg" xmlns:xlink="http://www.w3.org/1999/xlink">
	<desc>
			Created with Pixso.
	</desc>
	<defs/>
	<path id="path" d="M13.69 0C6.14 0 0 6.5 0 14.5C0 22.49 6.14 29 13.69 29C21.23 29 27.36 22.49 27.36 14.5C27.36 6.5 21.23 0 13.69 0ZM13.69 28.27C6.51 28.27 0.68 22.09 0.68 14.5C0.68 6.9 6.51 0.72 13.69 0.72C20.85 0.72 26.68 6.9 26.68 14.5C26.68 22.09 20.85 28.27 13.69 28.27ZM53.89 11.94C53.89 12.86 53.08 13.16 52.64 13.16L51.47 13.16L51.47 15.85L52.58 15.85C53.51 15.85 53.93 16.32 53.93 17.02C53.93 17.52 53.59 18.21 52.7 18.21C52.18 18.21 51.66 18.18 50.88 17.83L50.83 20.43C51.09 20.57 51.33 20.69 51.57 20.78C52.13 20.99 52.69 21.07 53.43 21.08C55.42 21.08 56.97 19.77 56.97 17.41C56.97 15.49 55.9 14.67 55.09 14.4L55.09 14.29C55.93 13.92 56.78 12.96 56.78 11.39C56.78 9.76 55.79 8.1 53.54 8.1C53.07 8.09 52.61 8.13 52.15 8.2C51.81 8.25 51.48 8.32 51.15 8.42L51.18 11.13C51.77 10.83 52.37 10.78 52.68 10.78C52.96 10.78 53.89 10.85 53.89 11.94ZM79.55 20.98C82.79 20.98 83.88 17.76 83.88 14.55C83.88 11.35 82.79 8.13 79.55 8.13C76.31 8.13 75.22 11.35 75.22 14.55C75.22 17.76 76.31 20.98 79.55 20.98ZM79.55 17.94C78.58 17.94 78.09 16.75 78.09 14.55C78.09 12.36 78.58 11.17 79.55 11.17C80.52 11.17 81 12.36 81 14.55C81 16.75 80.52 17.94 79.55 17.94ZM87.52 8.32L85.2 8.32L85.2 20.83L87.93 20.83L87.93 13.2L89.58 15.38L91.22 13.2L91.22 20.83L93.96 20.83L93.96 8.32L91.65 8.32L89.58 11.27L87.52 8.32ZM95.81 20.83L99.07 20.83C99.78 20.83 102.74 20.51 102.76 16.72C102.76 13.53 100.46 12.98 98.98 12.98L98.49 12.98L98.49 11.32L102.11 11.32L102.11 8.32L95.81 8.32L95.81 20.83ZM98.49 18.31L98.49 15.48L98.88 15.48C99.05 15.48 99.35 15.48 99.61 15.65C99.86 15.82 100.07 16.15 100.07 16.79C100.07 18.1 99.21 18.31 98.88 18.31L98.49 18.31ZM112.6 8.32L115.27 8.32L115.27 12.83L117.19 12.83L117.19 8.32L119.86 8.32L119.86 20.83L117.19 20.83L117.19 15.81L115.27 15.81L115.27 20.83L112.6 20.83L112.6 8.32ZM121.66 8.32L124.35 8.32L124.34 12.81L124.92 12.81L126.46 8.32L129.37 8.32L127.28 14.25L129.67 20.83L126.52 20.83L124.97 15.8L124.34 15.8L124.35 20.83L121.66 20.83L121.66 8.32ZM106.07 20.84L103.28 20.84L105.64 8.33L109.09 8.33L111.43 20.84L108.64 20.84L108.31 18.68L106.4 18.68L106.07 20.84ZM107.87 15.93L107.36 12.12L106.84 15.93L107.87 15.93ZM70.02 20.83L67.29 20.83L67.29 8.32L70.94 8.32C73.52 8.32 74.49 10.86 74.49 12.47C74.49 14.12 73.65 16.7 70.94 16.7L70.02 16.7L70.02 20.83ZM70.67 11.07L70.02 11.07L70.03 13.95L70.67 13.95C71.02 13.95 71.69 13.85 71.69 12.51C71.69 11.47 71.29 11.07 70.67 11.07ZM58.25 8.32L65.72 8.32L65.72 20.83L62.98 20.83L62.98 11.33L60.99 11.33L60.99 20.83L58.25 20.83L58.25 8.32ZM41.88 20.83L44.65 20.83L45 18.66L46.91 18.66L47.25 20.83L50.01 20.83L47.67 8.32L44.22 8.32L41.88 20.83ZM45.95 12.09L46.47 15.91L45.42 15.91L45.95 12.09ZM42.2 8.32L36.58 8.32L36.58 20.83L39.37 20.83L39.37 11.43L42.2 11.43L42.2 8.32ZM17.57 5.39C15.41 4.36 11.37 4.26 8.07 5.82C8.49 5.5 8.95 5.23 9.42 5C10.47 4.49 12.15 3.99 14.24 3.99C14.34 3.99 14.43 3.99 14.53 3.99C16.32 4.03 18.44 4.68 19.74 6.04C19.87 6.21 19.97 6.38 20.03 6.53C20.08 6.64 20.12 6.74 20.14 6.83C21.16 7.38 21.76 7.9 22.1 8.51C22.24 8.83 22.29 9.16 22.22 9.54C22.56 9.75 22.85 10.02 23.08 10.35C23.15 10.48 23.22 10.62 23.27 10.76C23.31 10.89 23.35 11.02 23.36 11.14C23.41 11.47 23.44 11.86 23.11 12.31C23.46 12.5 23.74 13.02 23.77 13.24C23.95 14.06 23.44 14.86 22.79 15.48C22.03 16.19 20.36 17.03 19 17.4C16.31 18.12 13.92 18.42 12.02 18.79C12.87 19.01 14.03 19.29 15.91 19.29C19.94 19.29 23.5 17.28 23.5 17.28C23.5 17.28 23.43 17.53 23.34 17.77C20.78 19.41 16.72 20.1 14.98 20.01C13.22 19.93 11.74 19.64 10.28 19.17C9.83 19.3 9.4 19.46 8.97 19.64C11.18 20.72 12.86 20.95 14.74 21.1C16.67 21.25 19.87 20.76 22.55 19.73C22.43 19.86 22.36 20.06 22.24 20.18C21.32 20.69 19.73 21.21 18.33 21.51C17.63 21.67 16.97 21.77 16.48 21.79C15.02 21.86 13.25 21.79 11.7 21.49C10.37 21.2 9.28 20.76 8.14 20.23C7.94 20.4 7.84 20.6 7.79 20.83C12.24 23.3 16.38 23.35 21.12 21.79L20.69 22.23C15.48 24.47 11.42 23.6 8.27 21.99L8.14 21.93C8.07 21.9 8 21.86 7.94 21.82C8.24 22.36 10.64 24.22 13.33 24.46C15.18 24.62 17.45 24.29 18.79 23.72L18 24.15C17.35 24.49 15.63 25.26 13.22 25.09C10.01 24.86 8.21 23.35 7.4 22.56C7.02 22.19 6.85 21.77 6.74 21.25C6.21 20.96 5.82 20.66 5.51 20.28C5.39 20.13 5.27 19.97 5.17 19.79C4.95 19.44 4.99 19.02 5.04 18.67L5.14 18.37C4.79 18.1 4.42 17.81 4.28 17.53C3.96 16.93 4.16 16.41 4.38 16C4.19 15.77 4.01 15.53 3.94 15.3C3.84 15.03 3.83 14.76 3.85 14.46C3.92 13.96 4.17 13.49 4.5 13.08C5.2 12.23 6.31 11.56 8.19 10.91C10.04 10.25 10.79 10.15 12.18 9.81C12.8 9.66 13.46 9.55 14.14 9.43C15.24 9.24 16.37 9.05 17.38 8.67C12.84 7.84 8.13 8.61 4.28 11.41L4.54 10.62C7.98 8.24 11.8 6.83 18.25 8.02C18.6 7.8 18.81 7.58 18.9 7.15C17.29 6.53 15.53 6.31 13.27 6.34C11.25 6.41 7.59 7.21 5.63 8.44L6.23 7.65C7.59 6.79 11.15 5.67 13.82 5.62C15.7 5.57 16.67 5.69 18.92 6.33C18.72 5.95 18.31 5.75 17.71 5.45L17.57 5.39ZM21.02 8.88C20.96 8.41 20.45 7.95 20.01 7.65C19.94 7.89 19.71 8.17 19.55 8.36C20.04 8.49 20.55 8.69 21.02 8.88ZM18.85 9.03C18.54 9.29 18.17 9.53 17.63 9.75C18.11 9.84 18.53 9.96 18.93 10.08C19.27 10.19 19.59 10.3 19.94 10.4C19.95 10.41 19.96 10.41 19.97 10.41C20.13 10.41 20.68 9.88 20.77 9.73C20.23 9.48 19.56 9.23 18.85 9.03ZM22.24 11.49C22.44 11.07 22.32 10.8 21.89 10.42C21.72 10.64 21.53 10.82 21.32 10.99C21.65 11.16 21.96 11.27 22.24 11.49ZM15.12 10.6C13.03 10.87 10.72 11.34 8.75 11.96L8.64 12C7.66 12.31 3.95 13.5 5.08 15.15C5.09 15.15 5.79 14.12 8.44 13.3C10.18 12.76 11.95 12.42 13.76 12.07C15.38 11.76 17.03 11.44 18.68 10.97C17.32 10.59 16.56 10.42 15.12 10.6ZM17.38 12.63C16.26 12.93 13.54 13.35 10.61 14.02C9.69 14.24 7.18 14.86 5.94 15.97C6.1 16.11 6.24 16.2 6.37 16.28C6.53 16.37 6.69 16.45 6.89 16.57C7.4 16.22 8.09 15.88 9.13 15.6C10.91 15.1 12.26 14.88 13.87 14.6C15.47 14.34 18.49 13.67 20.15 13.03C20.54 12.89 20.91 12.72 21.22 12.52C21.34 12.43 21.47 12.34 21.57 12.24C21.46 12.11 20.39 11.56 20.36 11.61C19.69 11.94 18.74 12.28 17.38 12.63ZM13.49 16.01C12.28 16.22 11.11 16.42 9.88 16.74C9.33 16.89 8.76 17.08 8.24 17.31C8.76 17.6 9.33 17.85 9.9 18.08C11.04 17.73 11.58 17.58 13.22 17.3C13.85 17.18 15.78 16.81 17.17 16.51C19.69 15.94 23.38 14.7 22.4 13.08C22.35 13.13 22.3 13.17 22.25 13.21C22.19 13.26 22.13 13.31 22.07 13.37C21.32 13.97 20.14 14.46 18.51 14.91C16.62 15.46 15.02 15.74 13.49 16.01ZM5.89 17.39C5.93 17.35 5.98 17.32 6.02 17.28C5.82 17.17 5.67 17.07 5.51 16.96L5.28 16.81C5.22 16.94 5.24 17.08 5.3 17.21C5.38 17.37 5.52 17.51 5.66 17.6C5.73 17.52 5.81 17.46 5.89 17.39ZM8.6 18.57C8.14 18.35 7.65 18.13 7.18 17.9C6.96 18.05 6.75 18.2 6.59 18.35C6.97 18.59 7.34 18.8 7.72 19.02C8 18.84 8.29 18.69 8.6 18.57ZM6.75 20.13C6.8 19.96 6.88 19.83 6.99 19.66C6.72 19.51 6.45 19.36 6.18 19.17C6.16 19.49 6.36 19.78 6.75 20.13Z" fill="#4D535D" fill-opacity="1.000000" fill-rule="evenodd"/>
</svg>
