<svg width="130.000000" height="26.788086" viewBox="0 0 130 26.7881" fill="none" xmlns="http://www.w3.org/2000/svg" xmlns:xlink="http://www.w3.org/1999/xlink">
	<desc>
			Created with Pixso.
	</desc>
	<defs/>
	<path id="path" d="M0 22.56L17.16 22.56L17.16 26.12L0 26.12L0 22.56ZM124.15 11.13L129.56 5.16L125.53 5.16L121.09 10.12L121.09 5.16L117.88 5.16L117.88 17.71L121.11 17.71L121.11 12.42L125.85 17.71L130 17.71L124.15 11.13ZM19.05 11.96C18.97 14.32 18.67 14.77 17.36 14.77L17.36 17.71L17.85 17.71C21.13 17.71 21.91 16.02 22.03 12.25L22.17 8.07L25.21 8.07L25.21 17.71L28.42 17.71L28.42 5.16L19.27 5.16L19.05 11.96ZM5.1 14.11L11.88 14.11L13 17.71L16.76 17.71L11.69 2.61C11.21 1.15 10.64 0 8.7 0C6.76 0 6.17 1.15 5.65 2.61L0.34 17.71L3.87 17.71L5.1 14.11ZM8.54 3.93L8.62 3.93L10.89 11.09L6.12 11.09L8.54 3.93ZM83.63 6.94L80.04 6.94L80.04 3.39L88.36 3.39L88.36 0.24L76.67 0.24L76.67 17.71L83.63 17.71C87.48 17.71 89.69 15.78 89.69 12.27C89.69 8.94 87.45 6.94 83.63 6.94ZM83.46 14.55L80.04 14.55L80.04 10.01L83.46 10.01C85.24 10.01 86.25 10.8 86.25 12.28C86.25 13.76 85.24 14.55 83.46 14.55ZM51.67 4.86L51.67 0.22L48.47 0.22L48.47 4.86C46.78 4.92 45.19 5.64 44.04 6.87C42.88 8.1 42.27 9.74 42.32 11.42C42.26 13.11 42.88 14.75 44.03 15.98C45.18 17.21 46.78 17.94 48.47 18L48.47 22.73L51.68 22.73L51.68 18C52.52 17.97 53.34 17.78 54.1 17.43C54.86 17.09 55.55 16.59 56.12 15.98C56.69 15.37 57.13 14.66 57.43 13.87C57.72 13.09 57.85 12.25 57.83 11.42C57.86 10.58 57.73 9.75 57.43 8.96C57.14 8.18 56.7 7.46 56.12 6.85C55.55 6.24 54.86 5.75 54.1 5.41C53.33 5.07 52.51 4.88 51.67 4.86ZM48.47 14.96C47.62 14.87 46.84 14.45 46.3 13.78C45.76 13.12 45.5 12.27 45.58 11.42C45.51 10.57 45.77 9.73 46.31 9.06C46.85 8.4 47.63 7.98 48.47 7.87L48.47 14.96ZM51.69 14.96L51.69 7.87C52.53 7.98 53.31 8.4 53.85 9.06C54.39 9.73 54.65 10.57 54.58 11.42C54.66 12.27 54.4 13.12 53.85 13.78C53.31 14.44 52.54 14.87 51.69 14.96ZM69.87 13.85L69.87 9.62C69.87 6.53 67.91 4.6 64.62 4.6C61.32 4.6 59.4 6.65 59.24 8.79L62.5 8.79C62.61 8.33 63.1 7.52 64.61 7.52C64.89 7.48 65.18 7.51 65.45 7.61C65.72 7.7 65.96 7.86 66.16 8.06C66.36 8.26 66.51 8.51 66.59 8.78C66.68 9.05 66.7 9.34 66.66 9.62L63.51 9.62C60.65 9.62 58.96 11.13 58.96 13.62C58.94 14.21 59.04 14.8 59.26 15.36C59.48 15.91 59.82 16.41 60.24 16.82C60.67 17.24 61.18 17.56 61.74 17.76C62.29 17.97 62.89 18.05 63.48 18.01C64.15 18.05 64.82 17.92 65.43 17.63C66.03 17.35 66.56 16.92 66.96 16.38C67.23 16.83 67.61 17.18 68.07 17.42C68.52 17.65 69.04 17.75 69.55 17.71L70.66 17.71L70.66 14.81C70.12 14.81 69.87 14.55 69.87 13.85ZM66.66 13.07C66.67 13.38 66.62 13.69 66.5 13.97C66.39 14.26 66.21 14.52 65.99 14.74C65.77 14.96 65.5 15.12 65.21 15.23C64.91 15.33 64.6 15.37 64.29 15.35C63.14 15.35 62.22 14.93 62.22 13.68C62.22 12.43 63.24 12.25 64.1 12.25L66.66 12.25L66.66 13.07ZM36.43 8.97L34.12 8.97L34.12 5.16L30.9 5.16L30.9 17.71L36.48 17.71C39.97 17.71 41.21 15.44 41.21 13.29C41.23 10.53 39.49 8.97 36.43 8.97ZM36.19 14.96L34.12 14.96L34.12 11.81L36.19 11.81C37.3 11.81 37.97 12.32 37.97 13.39C37.97 14.46 37.33 14.96 36.19 14.96ZM101.96 13.85L101.96 9.62C101.96 6.53 100 4.6 96.71 4.6C93.41 4.6 91.49 6.65 91.33 8.79L94.59 8.79C94.7 8.33 95.19 7.52 96.7 7.52C96.98 7.48 97.27 7.51 97.54 7.61C97.81 7.7 98.05 7.86 98.25 8.06C98.45 8.26 98.6 8.51 98.68 8.78C98.77 9.05 98.79 9.34 98.75 9.62L95.6 9.62C92.75 9.62 91.05 11.13 91.05 13.62C91.03 14.21 91.13 14.8 91.35 15.36C91.57 15.91 91.91 16.41 92.33 16.82C92.76 17.24 93.27 17.56 93.83 17.76C94.38 17.97 94.98 18.05 95.57 18.01C96.25 18.06 96.92 17.93 97.54 17.64C98.16 17.36 98.69 16.93 99.09 16.38C99.35 16.82 99.73 17.17 100.18 17.41C100.62 17.64 101.13 17.74 101.63 17.71L102.74 17.71L102.74 14.81C102.18 14.81 101.96 14.55 101.96 13.85ZM98.76 13.07C98.78 13.38 98.72 13.69 98.61 13.97C98.49 14.26 98.32 14.52 98.09 14.74C97.87 14.95 97.6 15.12 97.31 15.22C97.02 15.33 96.71 15.37 96.4 15.35C95.24 15.35 94.33 14.93 94.33 13.68C94.33 12.43 95.34 12.25 96.2 12.25L98.76 12.25L98.76 13.07ZM112.23 9.83L107.79 9.83L107.79 5.16L104.58 5.16L104.58 17.71L107.79 17.71L107.79 12.77L112.23 12.77L112.23 17.71L115.44 17.71L115.44 5.16L112.23 5.16L112.23 9.83Z" fill="#4D535D" fill-opacity="1.000000" fill-rule="nonzero"/>
</svg>
