<svg width="130.000000" height="21.000000" viewBox="0 0 130 21" fill="none" xmlns="http://www.w3.org/2000/svg" xmlns:xlink="http://www.w3.org/1999/xlink">
	<desc>
			Created with Pixso.
	</desc>
	<defs/>
	<path id="path" d="M58.13 6.37L60.88 4.27L51.78 4.27L51.78 16.72L60.88 16.72L60.88 14.62L54.38 14.62L54.38 11.47L59.86 11.47L59.86 9.37L54.38 9.37L54.38 6.37L58.13 6.37ZM46.79 6.37L49.54 4.27L39.14 4.27L39.14 16.72L44.55 16.72C47.59 16.72 49.32 15.29 49.32 12.82C49.32 10.42 47.73 9.14 44.84 9.14L41.66 9.14L41.66 6.37L46.79 6.37ZM44.48 11.17C46.14 11.17 46.86 11.77 46.86 12.89C46.86 14.02 46.07 14.62 44.48 14.62L41.74 14.62L41.74 11.17L44.48 11.17ZM68.17 4.27L63.26 4.27L63.26 16.72L65.86 16.72L65.86 13.2L68.24 13.2C71.42 13.2 73.37 11.47 73.37 8.7C73.37 5.92 71.35 4.27 68.17 4.27ZM68.17 11.09L65.86 11.09L65.86 6.29L68.17 6.29C69.83 6.29 70.77 7.12 70.77 8.7C70.7 10.27 69.83 11.09 68.17 11.09ZM34.73 14.02C34.01 14.39 33.29 14.62 32.49 14.62C30.18 14.62 28.45 12.89 28.45 10.5C28.45 8.09 30.11 6.37 32.49 6.37C33.36 6.37 34.15 6.67 34.88 7.12L36.75 5.7L36.61 5.54C35.53 4.57 34.08 4.04 32.42 4.04C30.61 4.04 29.03 4.64 27.8 5.84C26.64 7.04 25.92 8.7 25.99 10.42C25.99 12.14 26.64 13.79 27.8 15.07C29.03 16.27 30.69 16.95 32.35 16.87C34.23 16.87 35.82 16.2 36.97 15L35.31 13.72L34.73 14.02ZM112.66 9.37L107.1 9.37L107.1 4.27L104.5 4.27L104.5 16.72L107.1 16.72L107.1 11.62L112.66 11.62L112.66 16.72L115.26 16.72L115.26 4.27L112.66 4.27L112.66 9.37ZM95.11 4.27L89.91 16.72L92.51 16.72L93.52 14.25L99.01 14.25L100.02 16.72L102.77 16.72L97.71 4.27L95.11 4.27ZM94.39 12.14L96.41 7.12L98.29 12.14L94.39 12.14ZM124.65 10.27L129.34 4.27L126.38 4.27L122.48 9.59L121.04 9.59L121.04 4.27L118.44 4.27L118.44 16.72L121.04 16.72L121.04 11.7L122.7 11.7L126.67 16.72L129.99 16.72L124.65 10.27ZM84.49 9.14L81.32 9.14L81.32 6.37L88.1 6.37L88.1 4.27L78.71 4.27L78.71 16.72L84.13 16.72C87.16 16.72 88.9 15.29 88.9 12.82C88.97 10.42 87.38 9.14 84.49 9.14ZM84.06 14.7L81.32 14.7L81.32 11.25L84.06 11.25C85.72 11.25 86.44 11.84 86.44 12.97C86.51 14.09 85.65 14.7 84.06 14.7Z" fill="#4D535D" fill-opacity="1.000000" fill-rule="nonzero"/>
	<path id="path" d="M17.67 4.03C18.14 4.67 18.54 5.36 18.86 6.1L9.87 13.07L6.11 10.59L6.11 7.61L9.87 10.09L17.67 4.03Z" fill="#4D535D" fill-opacity="1.000000" fill-rule="nonzero"/>
	<path id="path" d="M2.27 10.38C2.27 10.25 2.28 10.12 2.28 9.98L0.01 9.87C0 10.04 0 10.21 0 10.38C0 11.75 0.25 13.1 0.75 14.36C1.24 15.62 1.97 16.76 2.89 17.73L4.5 16.03C3.8 15.29 3.24 14.41 2.85 13.44C2.47 12.47 2.27 11.43 2.27 10.38Z" fill="#4D535D" fill-opacity="1.000000" fill-rule="nonzero"/>
	<path id="path" d="M9.87 2.39C9.99 2.39 10.12 2.4 10.25 2.41L10.36 0.01C10.19 0 10.03 0 9.87 0C8.57 -0.01 7.28 0.26 6.09 0.78C4.89 1.31 3.8 2.07 2.89 3.04L4.5 4.74C5.2 3.99 6.04 3.4 6.96 3C7.88 2.6 8.87 2.39 9.87 2.39Z" fill="#4D535D" fill-opacity="1.000000" fill-rule="nonzero"/>
	<path id="path" d="M9.86 18.37C9.74 18.37 9.61 18.37 9.48 18.36L9.37 20.76C9.53 20.77 9.7 20.77 9.86 20.77C11.16 20.77 12.44 20.5 13.64 19.98C14.84 19.46 15.92 18.69 16.84 17.73L15.23 16.03C14.52 16.77 13.69 17.36 12.77 17.76C11.85 18.16 10.86 18.37 9.86 18.37Z" fill="#4D535D" fill-opacity="1.000000" fill-rule="nonzero"/>
	<path id="path" d="M14.14 3.79L16.06 2.3C14.31 0.8 12.12 -0.01 9.86 0L9.86 2.39C11.39 2.39 12.88 2.88 14.14 3.79Z" fill="#4D535D" fill-opacity="1.000000" fill-rule="nonzero"/>
	<path id="path" d="M19.74 10.38C19.74 9.76 19.68 9.14 19.58 8.52L17.46 10.17C17.46 10.24 17.46 10.31 17.46 10.38C17.46 11.5 17.24 12.6 16.8 13.62C16.37 14.64 15.74 15.56 14.96 16.3L16.49 18.09C17.51 17.11 18.33 15.92 18.89 14.6C19.45 13.27 19.74 11.83 19.74 10.38Z" fill="#4D535D" fill-opacity="1.000000" fill-rule="nonzero"/>
	<path id="path" d="M9.86 18.37C8.8 18.37 7.75 18.14 6.79 17.68C5.82 17.23 4.95 16.57 4.24 15.74L2.55 17.35C3.47 18.43 4.6 19.29 5.86 19.88C7.12 20.47 8.49 20.77 9.86 20.77L9.86 18.37Z" fill="#4D535D" fill-opacity="1.000000" fill-rule="nonzero"/>
	<path id="path" d="M4.78 4.46L3.25 2.68C2.22 3.65 1.4 4.84 0.84 6.17C0.28 7.49 -0.01 8.93 0 10.38L2.28 10.38C2.27 9.27 2.5 8.16 2.93 7.14C3.36 6.12 3.99 5.21 4.78 4.46Z" fill="#4D535D" fill-opacity="1.000000" fill-rule="nonzero"/>
</svg>
