<svg width="40.000000" height="20.571289" viewBox="0 0 40 20.5713" fill="none" xmlns="http://www.w3.org/2000/svg" xmlns:xlink="http://www.w3.org/1999/xlink">
	<desc>
			Created with Pixso.
	</desc>
	<defs/>
	<path id="Vector" d="M24.19 12.66C24.49 14.25 23.66 15.57 22.98 16.85C22.22 18.04 20.96 19.07 19.45 18.91C16.06 18.86 12.75 18.33 9.67 17.4C9.54 17.36 9.4 17.27 9.32 17.14C9.26 16.96 9.35 16.79 9.48 16.68C12.28 14.39 15.62 13.32 18.92 12.21C20.15 11.85 21.46 11.46 22.84 11.64C23.41 11.72 23.98 12.12 24.19 12.66ZM35.75 5.87C37.32 7.18 38.75 8.96 38.26 11.11C37.48 14.29 34.05 15.98 31.32 17.06C29.84 17.55 28.34 18.07 26.72 18.22C26.62 18.21 26.45 18.24 26.42 18.08L26.46 17.9C28.77 15.27 30.53 12.33 32.06 9.34C32.77 8 33.43 6.61 34.04 5.26C34.13 5.16 34.22 5.1 34.32 5.07C34.88 5.12 35.29 5.56 35.75 5.87ZM13.6 2.49L13.55 2.68C10.21 6.51 8.02 10.96 5.93 15.37C5.53 15.75 5.13 15.25 4.77 15.08C2.92 13.84 1.24 11.86 1.72 9.5C2.49 6.43 5.63 4.79 8.25 3.67C9.79 3.09 11.41 2.61 13.11 2.34C13.28 2.35 13.51 2.32 13.6 2.49ZM30.16 3.11C30.35 3.21 30.58 3.25 30.69 3.44C30.79 3.65 30.59 3.79 30.48 3.94C27.85 6.01 24.84 7.16 21.78 8.18C20.21 8.56 18.64 9.25 16.9 8.87C16.49 8.77 16.13 8.5 15.9 8.1C15.47 6.9 16.05 5.64 16.56 4.59C17.23 3.27 18.43 1.73 20.08 1.7C23.63 1.67 26.98 2.21 30.16 3.11ZM34.55 3.21C37.24 4.69 40.29 7.31 39.97 10.79C39.6 14.02 36.62 16.27 33.96 17.63C26.18 21.38 15.25 21.5 7.21 18.22C4.5 17.08 1.45 15.12 0.31 12.17C-0.57 9.75 0.5 7.23 2.29 5.55C6.03 2.12 10.8 0.94 15.72 0.26C21.05 -0.4 26.66 0.18 31.43 1.84C32.5 2.23 33.55 2.67 34.55 3.21Z" fill="#006BAB" fill-opacity="1.000000" fill-rule="evenodd"/>
</svg>
