<svg viewBox="0 0 17.4668 13.0132" xmlns="http://www.w3.org/2000/svg" xmlns:xlink="http://www.w3.org/1999/xlink" width="17.466797" height="13.013184" fill="none" customFrame="#000000">
	<path id="Vector" d="M7.92154 12.4183C7.54038 12.7993 7.02353 13.0133 6.48462 13.0133C5.9457 13.0133 5.42885 12.7993 5.04769 12.4183L0.595057 7.96568C0.406383 7.77698 0.256723 7.55297 0.154623 7.30643C0.0525233 7.05989 -1.77724e-05 6.79566 4.5095e-09 6.52882C1.77814e-05 6.26197 0.0525941 5.99775 0.154727 5.75122C0.25686 5.5047 0.406549 5.2807 0.595248 5.09203C0.783948 4.90335 1.00796 4.7537 1.2545 4.6516C1.50104 4.5495 1.76527 4.49695 2.03211 4.49697C2.29896 4.49699 2.56318 4.54957 2.80971 4.6517C3.05623 4.75383 3.28023 4.90352 3.4689 5.09222L6.1218 7.74473C6.21824 7.8407 6.34875 7.89457 6.48481 7.89457C6.62086 7.89457 6.75138 7.8407 6.84782 7.74473L14.0311 0.561467C14.4152 0.195291 14.9272 -0.00616456 15.4578 0.000143808C15.9884 0.00645218 16.4955 0.220024 16.8708 0.595227C17.246 0.97043 17.4597 1.47751 17.4661 2.00813C17.4724 2.53874 17.2711 3.05081 16.9049 3.43493L7.92154 12.4183Z" fill="rgb(0,91,185)" fill-rule="nonzero" />
</svg>
