<svg width="15.000000" height="20.000000" viewBox="0 0 15 20" fill="none" xmlns="http://www.w3.org/2000/svg" xmlns:xlink="http://www.w3.org/1999/xlink">
	<desc>
			Created with Pixso.
	</desc>
	<defs/>
	<path id="Vector" d="M7.5 0C5.51 0 3.6 0.79 2.19 2.19C0.79 3.6 0 5.51 0 7.5C0 12.88 6.98 19.62 7.28 19.91C7.34 19.96 7.41 20 7.5 20C7.58 20 7.65 19.96 7.71 19.91C8.01 19.62 15 12.88 15 7.5C14.99 5.51 14.2 3.6 12.8 2.19C11.39 0.79 9.48 0 7.5 0ZM7.5 10.93C6.82 10.93 6.15 10.73 5.58 10.35C5.02 9.98 4.58 9.44 4.32 8.81C4.06 8.18 3.99 7.49 4.12 6.82C4.26 6.16 4.58 5.54 5.06 5.06C5.54 4.58 6.16 4.26 6.82 4.12C7.49 3.99 8.18 4.06 8.81 4.32C9.44 4.58 9.98 5.02 10.35 5.58C10.73 6.15 10.93 6.82 10.93 7.5C10.93 8.41 10.57 9.28 9.92 9.92C9.28 10.57 8.41 10.93 7.5 10.93Z" fill="#005BB9" fill-opacity="1.000000" fill-rule="nonzero"/>
</svg>
