<svg width="30.000000" height="30.000000" viewBox="0 0 30 30" fill="none" xmlns="http://www.w3.org/2000/svg" xmlns:xlink="http://www.w3.org/1999/xlink">
	<desc>
			Created with Pixso.
	</desc>
	<defs>
		<clipPath id="clip23_13123">
			<rect id="Frame" rx="0.000000" width="29.000000" height="29.000000" transform="translate(0.500000 0.500000)" fill="white" fill-opacity="0"/>
		</clipPath>
	</defs>
	<rect id="Frame" rx="0.000000" width="29.000000" height="29.000000" transform="translate(0.500000 0.500000)" fill="#FFFFFF" fill-opacity="0"/>
	<g clip-path="url(#clip23_13123)">
		<path id="Vector" d="M12.04 9.72C12.69 10.36 12.69 11.4 12.04 12.05C11.4 12.69 10.36 12.69 9.71 12.05C9.07 11.4 9.07 10.36 9.71 9.72C10.36 9.07 11.4 9.07 12.04 9.72Z" fill="#005BB9" fill-opacity="1.000000" fill-rule="evenodd"/>
		<path id="Vector" d="M20.76 19.11C20.76 20.02 20.02 20.76 19.11 20.76C18.2 20.76 17.46 20.02 17.46 19.11C17.46 18.2 18.2 17.46 19.11 17.46C20.02 17.46 20.76 18.2 20.76 19.11Z" fill="#005BB9" fill-opacity="1.000000" fill-rule="evenodd"/>
		<path id="Vector" d="M27.49 12.07C26.96 11.52 26.72 10.77 26.82 10.01L27.28 6.78C27.31 6.57 27.26 6.35 27.13 6.18C27 6 26.82 5.89 26.61 5.85L23.39 5.29C22.63 5.15 21.99 4.69 21.63 4.01L20.1 1.13C19.89 0.73 19.41 0.58 19.01 0.77L16.08 2.21C15.39 2.55 14.6 2.55 13.91 2.21L10.98 0.77C10.86 0.72 10.74 0.69 10.61 0.69C10.46 0.69 10.32 0.73 10.19 0.81C10.06 0.88 9.96 0.99 9.89 1.13L8.36 4.01C8 4.68 7.35 5.16 6.6 5.29L3.38 5.85C3.17 5.89 2.99 6 2.86 6.18C2.73 6.35 2.68 6.57 2.71 6.78L3.17 10.01C3.27 10.77 3.03 11.52 2.5 12.07L0.23 14.42C0.08 14.58 0 14.78 0 15C0 15.21 0.08 15.41 0.23 15.57L2.5 17.92C3.03 18.47 3.27 19.22 3.17 19.98L2.71 23.21C2.68 23.42 2.73 23.64 2.86 23.81C2.99 23.99 3.17 24.1 3.38 24.14L6.6 24.7C7.36 24.84 8 25.3 8.36 25.98L9.89 28.86C9.99 29.05 10.16 29.2 10.36 29.26C10.56 29.33 10.78 29.31 10.98 29.22L13.91 27.78C14.6 27.44 15.39 27.44 16.08 27.78L19.01 29.22C19.21 29.31 19.43 29.33 19.63 29.26C19.83 29.2 20 29.05 20.1 28.86L21.63 25.98C21.99 25.31 22.64 24.83 23.39 24.7L26.6 24.14C26.82 24.1 27 23.99 27.13 23.81C27.26 23.64 27.31 23.42 27.28 23.21L26.82 19.98C26.72 19.22 26.96 18.47 27.49 17.92L29.76 15.57L29.76 15.57C29.91 15.41 30 15.21 30 15C30 14.78 29.91 14.58 29.76 14.42L27.49 12.07ZM7.59 10.88C7.59 9.06 9.06 7.59 10.88 7.59C12.7 7.59 14.17 9.06 14.17 10.88C14.17 12.7 12.7 14.17 10.88 14.17C9.06 14.17 7.59 12.7 7.59 10.88ZM10.64 20.52C10.48 20.68 10.27 20.76 10.06 20.76C9.84 20.76 9.63 20.68 9.47 20.52C9.15 20.2 9.15 19.67 9.47 19.35L19.35 9.47C19.67 9.15 20.2 9.15 20.52 9.47C20.84 9.79 20.84 10.32 20.52 10.64L10.64 20.52ZM19.11 22.4C17.29 22.4 15.82 20.93 15.82 19.11C15.82 17.29 17.29 15.82 19.11 15.82C20.93 15.82 22.4 17.29 22.4 19.11C22.4 20.93 20.93 22.4 19.11 22.4Z" fill="#005BB9" fill-opacity="1.000000" fill-rule="nonzero"/>
	</g>
</svg>
