<svg width="19.000000" height="18.992188" viewBox="0 0 19 18.9922" fill="none" xmlns="http://www.w3.org/2000/svg" xmlns:xlink="http://www.w3.org/1999/xlink">
	<desc>
			Created with Pixso.
	</desc>
	<defs/>
	<path id="Vector" d="M0.52 8.03C0.18 7.12 -0.05 6.19 0 5.21C0.04 4.6 0.28 4.09 0.73 3.65C1.21 3.2 1.68 2.71 2.15 2.25C2.76 1.64 3.55 1.64 4.16 2.25L5.3 3.4C5.68 3.77 6.05 4.12 6.41 4.5C7.06 5.15 7.06 5.92 6.41 6.57C5.95 7.04 5.48 7.49 5.01 7.95C4.89 8.07 4.87 8.16 4.93 8.32C5.25 9.07 5.68 9.72 6.19 10.35C7.2 11.59 8.36 12.7 9.72 13.56C10.01 13.74 10.33 13.88 10.64 14.04C10.8 14.12 10.9 14.1 11.04 13.96C11.49 13.49 11.96 13.01 12.44 12.54C13.05 11.93 13.84 11.93 14.45 12.54C15.2 13.29 15.96 14.04 16.71 14.8C17.34 15.44 17.34 16.22 16.71 16.85C16.28 17.29 15.83 17.7 15.43 18.16C14.84 18.81 14.11 19.02 13.27 18.98C12.04 18.92 10.9 18.51 9.82 17.98C7.39 16.79 5.3 15.16 3.57 13.09C2.27 11.57 1.21 9.9 0.52 8.03ZM18.99 8.44C18.54 4 15.02 0.47 10.58 0C10.05 -0.06 9.58 0.35 9.58 0.89L9.58 0.91C9.58 1.37 9.93 1.75 10.39 1.8C13.96 2.18 16.82 5.02 17.2 8.61C17.25 9.07 17.64 9.42 18.11 9.42C18.63 9.41 19.04 8.96 18.99 8.44ZM9.58 4.29L9.58 4.31C9.58 4.74 9.88 5.12 10.31 5.19C11.18 5.34 11.98 5.76 12.62 6.39C13.25 7.03 13.67 7.83 13.82 8.7C13.89 9.12 14.27 9.43 14.7 9.43L14.71 9.43C15.26 9.43 15.69 8.93 15.59 8.38C15.14 5.85 13.14 3.84 10.62 3.41C10.08 3.31 9.58 3.74 9.58 4.29Z" fill="#005BB9" fill-opacity="1.000000" fill-rule="nonzero"/>
</svg>
