<svg width="20.000000" height="20.000000" viewBox="0 0 20 20" fill="none" xmlns="http://www.w3.org/2000/svg" xmlns:xlink="http://www.w3.org/1999/xlink">
	<desc>
			Created with Pixso.
	</desc>
	<defs>
		<clipPath id="clip278_2631">
			<rect id="Frame" rx="0.000000" width="19.000000" height="19.000000" transform="translate(0.500000 0.500000)" fill="white" fill-opacity="0"/>
		</clipPath>
	</defs>
	<rect id="Frame" rx="0.000000" width="19.000000" height="19.000000" transform="translate(0.500000 0.500000)" fill="#FFFFFF" fill-opacity="0"/>
	<g clip-path="url(#clip278_2631)">
		<path id="Vector" d="M1.02 8.53C0.68 7.62 0.45 6.7 0.5 5.71C0.54 5.1 0.78 4.59 1.23 4.16C1.71 3.7 2.18 3.21 2.65 2.76C3.26 2.15 4.05 2.15 4.66 2.76L5.8 3.9C6.18 4.27 6.55 4.63 6.91 5C7.56 5.65 7.56 6.42 6.91 7.07C6.45 7.54 5.98 8 5.51 8.45C5.39 8.57 5.37 8.67 5.43 8.83C5.75 9.58 6.18 10.23 6.69 10.86C7.7 12.1 8.86 13.2 10.22 14.07C10.51 14.25 10.83 14.38 11.14 14.54C11.3 14.62 11.4 14.6 11.54 14.46C11.99 13.99 12.46 13.52 12.94 13.04C13.55 12.43 14.34 12.43 14.95 13.04C15.7 13.79 16.46 14.54 17.21 15.31C17.84 15.94 17.84 16.73 17.21 17.36C16.78 17.79 16.33 18.21 15.93 18.66C15.34 19.31 14.61 19.53 13.77 19.49C12.54 19.43 11.4 19.01 10.32 18.48C7.89 17.3 5.8 15.66 4.07 13.59C2.77 12.08 1.71 10.4 1.02 8.53ZM19.49 8.95C19.04 4.51 15.52 0.97 11.08 0.5C10.55 0.45 10.08 0.86 10.08 1.4L10.08 1.41C10.08 1.87 10.43 2.26 10.89 2.31C14.46 2.68 17.32 5.53 17.7 9.11C17.75 9.57 18.14 9.92 18.61 9.92C19.13 9.91 19.54 9.47 19.49 8.95ZM10.08 4.8L10.08 4.81C10.08 5.24 10.38 5.62 10.81 5.7C11.68 5.84 12.48 6.26 13.12 6.9C13.75 7.53 14.17 8.33 14.32 9.2C14.39 9.63 14.77 9.93 15.2 9.93L15.21 9.93C15.76 9.93 16.19 9.43 16.09 8.89C15.64 6.35 13.64 4.35 11.12 3.91C10.58 3.82 10.08 4.25 10.08 4.8Z" fill="#FFFFFF" fill-opacity="1.000000" fill-rule="nonzero"/>
	</g>
</svg>
