<svg width="30.000000" height="30.000000" viewBox="0 0 30 30" fill="none" xmlns="http://www.w3.org/2000/svg" xmlns:xlink="http://www.w3.org/1999/xlink">
	<desc>
			Created with Pixso.
	</desc>
	<defs/>
	<path id="Vector" d="M15 0C6.71 0 0 6.72 0 15C0 23.27 6.71 30 15 30C23.28 30 30 23.27 30 15C30 6.72 23.28 0 15 0ZM21.96 10.19C21.73 12.57 20.75 18.33 20.26 20.98C20.05 22.1 19.63 22.48 19.24 22.52C18.37 22.6 17.71 21.96 16.87 21.4C15.55 20.53 14.8 19.99 13.53 19.15C12.04 18.17 13 17.64 13.86 16.76C14.08 16.54 17.92 13.05 18 12.73C18.01 12.68 18 12.63 17.99 12.58C17.98 12.54 17.95 12.5 17.92 12.46C17.83 12.39 17.71 12.41 17.61 12.43C17.47 12.46 15.37 13.85 11.28 16.61C10.67 17.02 10.13 17.23 9.66 17.22C9.12 17.2 8.09 16.91 7.33 16.66C6.38 16.36 5.65 16.19 5.71 15.67C5.74 15.4 6.12 15.13 6.82 14.84C11.2 12.94 14.11 11.68 15.57 11.08C19.74 9.34 20.59 9.04 21.16 9.04C21.28 9.04 21.57 9.07 21.75 9.22C21.9 9.34 21.94 9.5 21.96 9.63C21.94 9.72 21.97 9.99 21.96 10.19Z" fill="#FFFFFF" fill-opacity="1.000000" fill-rule="nonzero"/>
	<path id="Vector" d="M21.96 10.19C21.73 12.57 20.75 18.33 20.26 20.98C20.05 22.1 19.63 22.48 19.24 22.52C18.37 22.6 17.71 21.96 16.87 21.4C15.55 20.53 14.8 19.99 13.53 19.15C12.04 18.17 13 17.64 13.86 16.76C14.08 16.54 17.92 13.05 18 12.73C18.01 12.68 18 12.63 17.99 12.58C17.98 12.54 17.95 12.5 17.92 12.46C17.83 12.39 17.71 12.41 17.61 12.43C17.47 12.46 15.37 13.85 11.28 16.61C10.67 17.02 10.13 17.23 9.66 17.22C9.12 17.2 8.09 16.91 7.33 16.66C6.38 16.36 5.65 16.19 5.71 15.67C5.74 15.4 6.12 15.13 6.82 14.84C11.2 12.94 14.11 11.68 15.57 11.08C19.74 9.34 20.59 9.04 21.16 9.04C21.28 9.04 21.57 9.07 21.75 9.22C21.9 9.34 21.94 9.5 21.96 9.63C21.94 9.72 21.97 9.99 21.96 10.19Z" fill="#005BB9" fill-opacity="1.000000" fill-rule="nonzero"/>
</svg>
