<svg width="15.000000" height="15.000000" viewBox="0 0 15 15" fill="none" xmlns="http://www.w3.org/2000/svg" xmlns:xlink="http://www.w3.org/1999/xlink">
	<desc>
			Created with Pixso.
	</desc>
	<defs>
		<clipPath id="clip278_2626">
			<rect id="Frame" rx="0.000000" width="14.000000" height="14.000000" transform="translate(0.500000 0.500000)" fill="white" fill-opacity="0"/>
		</clipPath>
	</defs>
	<rect id="Frame" rx="0.000000" width="14.000000" height="14.000000" transform="translate(0.500000 0.500000)" fill="#FFFFFF" fill-opacity="0"/>
	<g clip-path="url(#clip278_2626)">
		<path id="Vector" d="M7.5 15C11.64 15 15 11.64 15 7.5C15 3.35 11.64 0 7.5 0C3.35 0 0 3.35 0 7.5C0 11.64 3.35 15 7.5 15ZM6.96 3.21C6.96 2.91 7.2 2.67 7.5 2.67C7.79 2.67 8.03 2.91 8.03 3.21L8.03 7.24L10.51 9.22C10.74 9.41 10.78 9.74 10.59 9.97C10.54 10.04 10.48 10.09 10.41 10.12C10.33 10.16 10.25 10.17 10.17 10.17C10.06 10.17 9.94 10.14 9.84 10.06L7.16 7.91C7.03 7.81 6.96 7.66 6.96 7.5L6.96 3.21L6.96 3.21Z" fill="#FFFFFF" fill-opacity="1.000000" fill-rule="nonzero"/>
	</g>
</svg>
