<svg width="30.000000" height="30.000000" viewBox="0 0 30 30" fill="#fff" xmlns="http://www.w3.org/2000/svg" xmlns:xlink="http://www.w3.org/1999/xlink">
                <desc>
                    Created with Pixso.
                </desc>
                <defs/>
                <path id="Vector" class="vector2" d="M14.99 10C12.23 10 10 12.25 10 15C10 17.74 12.25 19.99 14.99 19.99C17.74 19.99 19.99 17.74 19.99 15C19.99 12.25 17.74 10 14.99 10ZM29.99 15C29.99 12.92 29.99 10.88 29.89 8.8C29.78 6.4 29.22 4.26 27.46 2.52C25.71 0.77 23.59 0.21 21.19 0.1C19.11 0 17.07 0 14.99 0C12.92 0 10.88 0 8.8 0.1C6.4 0.21 4.26 0.77 2.52 2.52C0.77 4.28 0.21 6.4 0.1 8.8C0 10.88 0 12.92 0 15C0 17.07 0 19.11 0.1 21.19C0.21 23.59 0.77 25.73 2.52 27.47C4.28 29.22 6.4 29.78 8.8 29.89C10.88 30 12.92 30 14.99 30C17.07 30 19.11 30 21.19 29.89C23.59 29.78 25.73 29.22 27.46 27.47C29.22 25.71 29.78 23.59 29.89 21.19C30.02 19.13 29.99 17.07 29.99 15ZM14.99 22.69C10.73 22.69 7.3 19.26 7.3 15C7.3 10.73 10.73 7.3 14.99 7.3C19.26 7.3 22.69 10.73 22.69 15C22.69 19.26 19.26 22.69 14.99 22.69ZM23.01 8.78C22.02 8.78 21.21 7.99 21.21 6.98C21.21 5.97 22 5.18 23.01 5.18C24.02 5.18 24.81 5.97 24.81 6.98C24.81 7.22 24.77 7.45 24.68 7.67C24.59 7.88 24.46 8.08 24.29 8.25C24.13 8.41 23.93 8.54 23.71 8.63C23.5 8.72 23.26 8.76 23.03 8.76L23.01 8.78Z" fill="#005BB9" fill-opacity="1.000000" fill-rule="evenodd"/>
              </svg>
