<svg width="30.000000" height="30.000000" viewBox="0 0 30 30" fill="none" xmlns="http://www.w3.org/2000/svg" xmlns:xlink="http://www.w3.org/1999/xlink">
	<desc>
			Created with Pixso.
	</desc>
	<defs/>
	<path id="Vector" d="M15 0C17.31 0 19.58 0.53 21.65 1.55C23.72 2.58 25.52 4.06 26.92 5.9C28.32 7.73 29.28 9.86 29.72 12.13C30.16 14.39 30.07 16.73 29.46 18.96C28.85 21.18 27.74 23.24 26.21 24.96C24.67 26.68 22.76 28.03 20.62 28.9C18.49 29.76 16.18 30.13 13.87 29.95C11.57 29.78 9.34 29.08 7.36 27.91L1.23 29.95C1.07 30 0.89 30.01 0.72 29.97C0.55 29.93 0.4 29.84 0.27 29.72C0.15 29.6 0.06 29.44 0.02 29.27C-0.02 29.1 -0.01 28.93 0.05 28.76L2.09 22.64C0.74 20.36 0.02 17.76 0 15.12C-0.03 12.47 0.65 9.87 1.96 7.57C3.28 5.27 5.17 3.35 7.46 2.02C9.75 0.69 12.35 0 15 0ZM9.77 7.5C9.58 7.51 9.4 7.56 9.23 7.64C9.06 7.73 8.91 7.85 8.79 8C8.45 8.4 7.5 9.36 7.5 11.32C7.5 13.27 8.82 15.16 9 15.43L9.01 15.43C9.19 15.69 11.61 19.71 15.31 21.43C16 21.75 16.7 22.03 17.41 22.27C18.3 22.57 19.1 22.53 19.74 22.43C20.45 22.32 21.92 21.47 22.23 20.53C22.54 19.61 22.54 18.81 22.45 18.65C22.35 18.48 22.11 18.38 21.74 18.18C21.37 17.98 19.55 17.02 19.21 16.89C18.88 16.75 18.63 16.69 18.38 17.08C18.14 17.49 17.43 18.38 17.22 18.65C17 18.91 16.78 18.94 16.42 18.75C16.05 18.55 14.86 18.13 13.45 16.77C12.35 15.72 11.61 14.41 11.4 14.01C11.18 13.61 11.37 13.4 11.56 13.2C11.72 13.03 11.93 12.74 12.11 12.51C12.29 12.28 12.36 12.11 12.48 11.84C12.6 11.58 12.54 11.35 12.45 11.15C12.36 10.95 11.62 8.99 11.31 8.19C11.01 7.42 10.71 7.53 10.48 7.51C10.27 7.5 10.02 7.5 9.77 7.5Z" fill="#FFFFFF" fill-opacity="1.000000" fill-rule="nonzero"/>
	<path id="Vector" d="M9.77 7.5C9.58 7.51 9.4 7.56 9.23 7.64C9.06 7.73 8.91 7.85 8.79 8C8.45 8.4 7.5 9.36 7.5 11.32C7.5 13.27 8.82 15.16 9 15.43L9.01 15.43C9.19 15.69 11.61 19.71 15.31 21.43C16 21.75 16.7 22.03 17.41 22.27C18.3 22.57 19.1 22.53 19.74 22.43C20.45 22.32 21.92 21.47 22.23 20.53C22.54 19.61 22.54 18.81 22.45 18.65C22.35 18.48 22.11 18.38 21.74 18.18C21.37 17.98 19.55 17.02 19.21 16.89C18.88 16.75 18.63 16.69 18.38 17.08C18.14 17.49 17.43 18.38 17.22 18.65C17 18.91 16.78 18.94 16.42 18.75C16.05 18.55 14.86 18.13 13.45 16.77C12.35 15.72 11.61 14.41 11.4 14.01C11.18 13.61 11.37 13.4 11.56 13.2C11.72 13.03 11.93 12.74 12.11 12.51C12.29 12.28 12.36 12.11 12.48 11.84C12.6 11.58 12.54 11.35 12.45 11.15C12.36 10.95 11.62 8.99 11.31 8.19C11.01 7.42 10.71 7.53 10.48 7.51C10.27 7.5 10.02 7.5 9.77 7.5Z" fill="#005BB9" fill-opacity="1.000000" fill-rule="nonzero"/>
</svg>
